<?xml version="1.0" standalone="no"?>
<!DOCTYPE svg PUBLIC "-//W3C//DTD SVG 20010904//EN"
 "http://www.w3.org/TR/2001/REC-SVG-20010904/DTD/svg10.dtd">
<svg version="1.0" xmlns="http://www.w3.org/2000/svg"
 width="260.000000pt" height="260.000000pt" viewBox="0 0 260.000000 260.000000"
 preserveAspectRatio="xMidYMid meet">
<metadata>
Created by potrace 1.14, written by Peter Selinger 2001-2017
</metadata>
<g transform="translate(0.000000,260.000000) scale(0.100000,-0.100000)"
fill="#000000" stroke="none">
<path d="M1200 1937 c0 -17 11 -30 43 -47 116 -64 210 -157 190 -189 -6 -9
-15 -17 -22 -17 -6 -1 -15 -2 -21 -3 -20 -2 -9 -31 18 -45 15 -8 35 -24 44
-35 16 -19 16 -21 2 -21 -9 0 -46 -30 -82 -67 l-65 -68 -66 -5 c-62 -5 -67 -7
-82 -37 -9 -18 -22 -40 -29 -48 -16 -20 -5 -19 31 2 25 15 33 16 62 4 83 -34
114 -42 144 -39 41 5 42 -6 3 -22 -49 -20 -34 -30 48 -30 93 0 139 19 165 70
l18 35 -3 -35 c-2 -30 0 -35 17 -32 35 6 45 23 46 76 l1 51 13 -40 13 -40 11
27 c6 16 8 40 5 55 -8 38 -54 103 -90 128 -16 11 -28 27 -26 35 1 9 -6 25 -17
37 -15 16 -19 30 -14 57 3 22 1 42 -7 51 -18 22 -51 19 -57 -5 -8 -31 -18 -25
-54 33 -77 123 -148 187 -209 187 -25 0 -30 -4 -30 -23z m263 -307 c-6 -7 -23
23 -23 40 0 8 6 4 13 -10 8 -14 12 -27 10 -30z m92 -40 c3 -5 -3 -10 -14 -10
-11 0 -23 5 -26 10 -3 6 3 10 14 10 11 0 23 -4 26 -10z m-149 -94 c-66 -77
-84 -86 -158 -85 l-63 2 65 8 c64 8 66 9 128 75 74 79 95 79 28 0z m129 -25
c-13 -88 -49 -147 -108 -178 -45 -23 -41 -10 7 24 51 36 84 98 88 165 2 25 7
44 11 41 5 -3 6 -26 2 -52z"/>
<path d="M1110 1646 c-13 -17 -6 -36 15 -36 19 0 26 27 11 39 -10 8 -17 7 -26
-3z"/>
<path d="M1626 1634 c-9 -23 -8 -24 14 -24 11 0 20 -7 20 -15 0 -8 -9 -15 -21
-15 -11 0 -17 -4 -14 -10 10 -17 51 -11 70 10 15 17 16 24 7 45 -14 29 -66 36
-76 9z"/>
<path d="M1178 1575 c-14 -30 3 -55 37 -55 12 0 28 7 35 15 20 24 -3 65 -35
65 -17 0 -29 -8 -37 -25z"/>
<path d="M580 1575 c-206 -43 -373 -152 -444 -293 -21 -42 -26 -65 -26 -127 0
-41 4 -75 8 -75 5 0 9 26 9 59 1 78 29 139 96 205 108 108 249 164 437 173
135 6 207 -8 314 -62 38 -19 72 -32 77 -30 4 3 13 22 20 42 13 41 12 42 -79
80 -106 44 -277 56 -412 28z"/>
<path d="M1155 1490 c-8 -14 3 -30 21 -30 8 0 14 9 14 20 0 21 -24 28 -35 10z"/>
<path d="M386 1239 c-51 -40 -26 -90 53 -108 54 -12 69 -25 55 -49 -15 -23
-60 -27 -90 -7 -16 10 -30 13 -40 7 -14 -8 -14 -12 6 -30 27 -25 70 -36 109
-27 41 9 63 37 59 76 -3 37 -24 52 -96 69 -32 8 -42 15 -40 28 4 20 72 30 92
13 7 -6 17 -6 26 0 13 8 11 13 -9 29 -31 27 -90 26 -125 -1z"/>
<path d="M1846 1239 c-51 -40 -26 -90 53 -108 54 -12 69 -25 55 -49 -15 -23
-60 -27 -90 -7 -15 10 -30 13 -39 7 -13 -7 -11 -12 11 -33 20 -18 36 -24 74
-24 63 0 92 25 88 74 -3 39 -22 53 -96 71 -32 8 -42 15 -40 28 4 20 74 30 91
13 12 -12 37 -3 37 13 0 36 -103 47 -144 15z"/>
<path d="M575 1240 c-8 -14 3 -30 21 -30 8 0 14 9 14 20 0 21 -24 28 -35 10z"/>
<path d="M650 1140 c0 -103 1 -110 20 -110 19 0 20 7 20 110 0 103 -1 110 -20
110 -19 0 -20 -7 -20 -110z"/>
<path d="M1680 1208 c0 -33 -3 -39 -12 -30 -38 38 -118 -10 -118 -71 0 -40 36
-79 72 -78 13 0 40 1 61 2 l37 1 0 109 c0 102 -1 109 -20 109 -17 0 -20 -7
-20 -42z m-10 -73 c19 -22 4 -64 -25 -71 -42 -11 -67 24 -49 70 8 20 57 21 74
1z"/>
<path d="M574 1176 c-3 -7 -4 -42 -2 -77 2 -51 6 -64 21 -67 15 -3 17 6 17 77
0 66 -3 81 -15 81 -9 0 -18 -6 -21 -14z"/>
<path d="M717 1183 c-2 -4 11 -41 29 -81 45 -98 64 -97 106 6 17 40 28 75 25
78 -15 15 -37 -9 -54 -55 -10 -28 -20 -51 -23 -51 -3 0 -15 24 -26 53 -20 48
-45 70 -57 50z"/>
<path d="M922 1167 c-46 -49 -17 -141 44 -139 16 1 46 2 67 3 l37 1 0 79 c0
79 -9 96 -37 68 -8 -8 -13 -8 -17 0 -13 20 -71 12 -94 -12z m100 -31 c22 -32
0 -76 -37 -76 -12 0 -26 5 -33 12 -18 18 -15 65 6 77 19 11 53 4 64 -13z"/>
<path d="M1185 1165 c-46 -45 -24 -125 39 -141 13 -3 33 -1 43 5 11 5 29 7 41
4 21 -5 22 -2 22 76 0 64 -3 81 -14 81 -8 0 -18 -5 -22 -11 -4 -8 -9 -8 -17 0
-19 19 -67 12 -92 -14z m89 -21 c20 -19 21 -58 2 -74 -19 -15 -56 -9 -69 11
-14 22 -1 67 21 72 29 8 30 8 46 -9z"/>
<path d="M1365 1178 c-2 -7 -3 -42 -2 -78 2 -53 5 -65 20 -68 14 -3 17 4 17
46 0 55 15 75 52 70 21 -3 23 -9 26 -60 3 -50 6 -58 22 -58 18 0 20 7 20 60 0
47 -4 64 -20 80 -23 23 -60 26 -79 8 -11 -10 -14 -10 -18 0 -3 6 -11 12 -19
12 -8 0 -16 -6 -19 -12z"/>
<path d="M2062 1170 c-21 -20 -27 -41 -22 -85 5 -55 90 -79 132 -37 71 71 -37
190 -110 122z m86 -32 c30 -30 0 -85 -41 -74 -31 7 -46 48 -27 71 15 18 51 20
68 3z"/>
<path d="M2230 1110 c0 -64 3 -80 15 -80 11 0 15 12 15 49 0 54 15 74 52 69
20 -3 24 -10 28 -58 4 -42 9 -56 23 -58 27 -5 25 110 -3 138 -23 23 -60 26
-79 8 -11 -10 -14 -10 -18 0 -3 6 -11 12 -19 12 -11 0 -14 -18 -14 -80z"/>
<path d="M2429 1171 c-21 -16 -22 -22 -11 -45 8 -19 21 -27 52 -32 26 -4 40
-12 40 -22 0 -12 -9 -14 -45 -9 -52 8 -66 -5 -30 -29 44 -29 115 -4 115 41 0
29 -16 41 -63 50 -46 9 -44 30 4 31 51 2 52 3 39 19 -17 21 -73 19 -101 -4z"/>
</g>
</svg>
